<?xml version="1.0" encoding="UTF-8" standalone="no"?>
<!-- Created with Inkscape (http://www.inkscape.org/) -->

<svg
   width="151.03572mm"
   height="120.23344mm"
   viewBox="0 0 151.03572 120.23344"
   version="1.1"
   id="svg5"
   xml:space="preserve"
   xmlns="http://www.w3.org/2000/svg"
   xmlns:svg="http://www.w3.org/2000/svg"><defs
     id="defs2" /><g
     id="layer1"
     transform="translate(-20.469372,-77.605642)"><path
       style="fill:#cccccc;stroke:none;stroke-width:0.106361"
       d="m 124.58719,155.34933 c -0.55333,-4.21422 -1.65258,-7.98598 -4.18221,-11.48695 -1.7636,-2.44087 -4.07439,-4.47279 -6.19598,-6.59436 -2.63168,-2.63168 -5.14477,-5.55681 -9.25337,-4.3141 -4.24049,1.28261 -5.733268,6.58894 -3.17423,10.05757 2.55585,3.46428 6.70625,5.76432 8.82602,9.57246 3.29473,5.91876 -1.62966,13.68745 -7.45992,15.70479 -3.385778,1.17145 -7.141488,0.67581 -10.104278,-1.34919 -2.291,-1.56573 -4.17997,-3.84079 -6.07244,-5.84834 -4.57989,-4.85813 -9.415264,-9.52991 -14.136084,-14.25073 -3.02787,-3.02788 -6.63998,-6.29485 -7.6703,-10.63607 -0.36705,-1.54659 -0.25005,-3.1403 0.4665,-4.57351 0.68188,-1.36364 1.87631,-2.27771 2.73251,-3.5099 1.29717,-1.86716 1.50298,-4.44098 0.5084,-6.488 -1.83589,-3.77867 -6.73156,-4.71528 -9.97035,-2.16242 -3.80964,3.00288 -6.21179,8.28731 -6.77667,13.01121 -1.41811,11.85698 8.61256,20.66173 16.13641,28.18557 3.35195,3.35196 6.64594,6.75231 9.9979,10.10426 2.004154,2.00416 3.929384,4.1653 6.168914,5.9111 3.33696,2.60116 7.30475,4.27315 11.48695,4.89228 12.121298,1.79409 24.113148,-6.2404 27.623968,-17.92954 0.77883,-2.59307 1.40542,-5.57596 1.04826,-8.29613 M 91.721802,123.97294 c -0.26728,-2.03479 -0.56977,-4.00235 -1.23963,-5.9562 -2.50884,-7.3175 -7.83666,-12.63128 -13.180324,-17.97495 -3.03266,-3.032657 -6.00778,-6.114137 -9.04065,-9.147007 -5.5515,-5.55149 -10.57959,-11.21537 -18.61313,-12.82188 -2.73155,-0.54624 -5.54011,-0.60105 -8.29613,-0.22979 -2.4497,0.33 -4.91482,1.0738 -7.12616,2.17662 -11.138621,5.55498 -16.288071,18.36922 -12.547471,30.126317 1.65465,5.20072 5.241451,8.73519 8.927061,12.55013 1.08211,1.12019 2.0619,2.35855 3.40769,3.18391 1.99979,1.22655 4.70156,1.14434 6.70072,-0.0173 3.34185,-1.94194 4.04415,-6.71051 1.65199,-9.65414 -2.32504,-2.86121 -5.6587,-4.94248 -7.51534,-8.18977 -3.51298,-6.14414 -0.63305,-14.036207 5.86335,-16.713407 3.41567,-1.40758 7.50013,-0.88258 10.5297,1.18783 3.37004,2.30303 6.06044,5.84463 8.93431,8.718487 3.74123,3.74124 7.47045,7.49449 11.16946,11.27434 3.03479,3.10116 6.29719,6.47215 7.312294,10.84868 0.39162,1.6889 0.27952,3.43247 -0.503724,4.99895 -0.64231,1.28473 -1.78112,2.17773 -2.50745,3.40354 -1.17252,1.97884 -1.11413,4.77028 0.13242,6.70072 2.2843,3.53724 7.316334,3.93556 10.238494,0.95565 3.83483,-3.91067 6.43311,-9.85878 5.70252,-15.4207 z"
       id="path724-0" /><path
       style="fill:#ffffff;stroke:none;stroke-width:0.106361"
       d="m 127.13685,93.721253 c -4.21422,0.55333 -7.98598,1.65258 -11.48694,4.18221 -2.44087,1.7636 -4.47278,4.074387 -6.59436,6.195997 -2.63168,2.63168 -5.55681,5.14477 -4.31409,9.25337 1.2826,4.24049 6.58893,5.73327 10.05757,3.17423 3.46426,-2.55585 5.76431,-6.70625 9.57245,-8.82602 5.91875,-3.29473 13.68744,1.62966 15.70478,7.45992 1.17146,3.38578 0.67582,7.14148 -1.34918,10.10427 -1.56574,2.291 -3.84079,4.17997 -5.84835,6.07244 -4.85813,4.57989 -9.52991,9.41526 -14.25073,14.13608 -3.02786,3.02787 -6.29484,6.63998 -10.63605,7.6703 -1.54659,0.36705 -3.1403,0.25005 -4.57351,-0.4665 -1.36365,-0.68188 -2.27771,-1.87631 -3.509898,-2.73251 -1.86716,-1.29717 -4.44098,-1.50298 -6.488,-0.5084 -3.77867,1.83589 -4.71529,6.73156 -2.16242,9.97035 3.00288,3.80963 8.2873,6.21178 13.011208,6.77666 11.85696,1.41811 20.66171,-8.61255 28.18556,-16.1364 3.35195,-3.35195 6.7523,-6.64594 10.10426,-9.9979 2.00415,-2.00415 4.16529,-3.92938 5.9111,-6.16891 2.60115,-3.33696 4.27314,-7.30475 4.89227,-11.48695 1.79409,-12.12129 -6.2404,-24.113157 -17.92954,-27.623977 -2.59307,-0.77883 -5.57595,-1.40542 -8.29613,-1.04826 M 95.760472,126.58665 c -2.03478,0.26728 -4.00235,0.56977 -5.9562,1.23963 -7.3175,2.50884 -12.631284,7.83666 -17.974944,13.18032 -3.03266,3.03266 -6.11414,6.00778 -9.14702,9.04065 -5.55148,5.5515 -11.21537,10.57959 -12.82187,18.61312 -0.54624,2.73155 -0.60106,5.54011 -0.22979,8.29613 0.33,2.4497 1.07379,4.91482 2.17661,7.12616 5.55499,11.13862 18.36922,16.28807 30.126334,12.54747 5.20072,-1.65465 8.73519,-5.24145 12.55013,-8.92706 1.12019,-1.08211 2.35855,-2.0619 3.1839,-3.40769 1.22656,-1.99979 1.14434,-4.70156 -0.0173,-6.70072 -1.94193,-3.34185 -6.7105,-4.04415 -9.65414,-1.65199 -2.86121,2.32504 -4.94248,5.6587 -8.18977,7.51534 -6.144134,3.51298 -14.036204,0.63305 -16.713414,-5.86335 -1.40757,-3.41567 -0.88258,-7.50013 1.18784,-10.5297 2.30303,-3.37004 5.84462,-6.06043 8.71849,-8.9343 3.74124,-3.74123 7.494494,-7.47045 11.274344,-11.16946 3.10115,-3.03479 6.47215,-6.29719 10.84867,-7.31229 1.6889,-0.39162 3.43247,-0.27952 4.998948,0.50372 1.28473,0.64231 2.17774,1.78112 3.40354,2.50745 1.97884,1.17252 4.77028,1.11413 6.70072,-0.13242 3.53724,-2.2843 3.93556,-7.31633 0.95565,-10.23849 -3.91067,-3.83483 -9.85878,-6.43311 -15.420688,-5.70252 z"
       id="path724" /><text
       xml:space="preserve"
       style="font-weight:bold;font-size:17.6389px;font-family:Roboto;-inkscape-font-specification:'Roboto Bold';fill:#cccccc;stroke-width:4.99999;stroke-linecap:round;paint-order:stroke markers fill;stop-color:#000000"
       x="106.04584"
       y="197.04462"
       id="text1358"><tspan
         id="tspan1356"
         style="font-size:17.6389px;fill:#cccccc;stroke-width:5"
         x="106.04584"
         y="197.04462">LINK</tspan></text><text
       xml:space="preserve"
       style="font-weight:bold;font-size:17.6389px;font-family:Roboto;-inkscape-font-specification:'Roboto Bold';fill:#ffffff;stroke-width:4.99999;stroke-linecap:round;paint-order:stroke markers fill;stop-color:#000000"
       x="122.41246"
       y="180.74416"
       id="text1358-1"><tspan
         id="tspan1356-3"
         style="font-size:17.6389px;fill:#ffffff;stroke-width:5"
         x="122.41246"
         y="180.74416">INTER</tspan></text></g></svg>
